<svg width="175" height="45" viewBox="0 0 175 45" fill="none" xmlns="http://www.w3.org/2000/svg">
<g clip-path="url(#clip0_86_816)">
<path d="M9.18405 3.52535C12.4818 3.52535 15.1637 6.20039 15.1637 9.50715C15.1637 12.8139 12.4896 15.4889 9.18405 15.4889C5.87849 15.4889 3.20441 12.8139 3.20441 9.50715C3.20441 6.20039 5.87849 3.52535 9.18405 3.52535ZM9.18405 0.405762C4.17113 0.405762 0.09375 4.49242 0.09375 9.50715C0.09375 14.5219 4.17113 18.6085 9.19185 18.6085C14.2126 18.6085 18.2899 14.5297 18.2899 9.50715C18.2899 4.48462 14.2048 0.405762 9.18405 0.405762Z" fill="#EBCE5E"/>
<path d="M9.14459 23.2797C9.51101 23.2797 9.87743 23.4669 10.0645 23.8491L11.1326 26.0094C11.2807 26.3135 11.5692 26.5241 11.9044 26.5709L14.29 26.9141C15.132 27.0388 15.4673 28.0683 14.8592 28.6688L13.1362 30.3534C12.8945 30.5874 12.7854 30.9305 12.84 31.2659L13.2454 33.6368C13.3623 34.2997 12.8322 34.8378 12.2319 34.8378C12.0759 34.8378 11.9122 34.7988 11.7563 34.7208L9.62795 33.5978C9.47983 33.5198 9.31611 33.4808 9.15239 33.4808C8.98867 33.4808 8.82495 33.5198 8.67683 33.5978L6.54848 34.7208C6.39256 34.8066 6.22884 34.8378 6.07291 34.8378C5.47261 34.8378 4.95027 34.2997 5.05941 33.6368L5.46481 31.2659C5.51939 30.9305 5.41024 30.5952 5.16856 30.3534L3.44561 28.6688C2.83751 28.0761 3.17275 27.0388 4.01473 26.9141L6.40035 26.5709C6.73559 26.5241 7.02404 26.3135 7.17217 26.0094L8.24024 23.8491C8.42735 23.4669 8.79377 23.2797 9.16019 23.2797M9.16019 20.1602C7.56977 20.1602 6.14308 21.0492 5.44143 22.4686L4.86451 23.6385L3.57035 23.8257C1.99553 24.0518 0.716964 25.1359 0.225807 26.6489C-0.26535 28.1619 0.140049 29.7919 1.27829 30.8993L2.21382 31.8118L1.99553 33.0986C1.78504 34.3075 2.12027 35.5319 2.90768 36.4678C3.70289 37.4115 4.85672 37.9496 6.08071 37.9496C6.75118 37.9496 7.41385 37.7858 8.00636 37.4738L9.16019 36.8655L10.314 37.4738C10.9065 37.7858 11.577 37.9496 12.2397 37.9496C13.4637 37.9496 14.6175 37.4115 15.4127 36.4678C16.2001 35.5319 16.5353 34.3075 16.3248 33.0986L16.1065 31.8118L17.0421 30.8993C18.1803 29.7919 18.5857 28.1619 18.0946 26.6489C17.6034 25.1359 16.3248 24.0518 14.75 23.8257L13.4559 23.6385L12.8789 22.4686C12.1773 21.0414 10.7506 20.1602 9.16019 20.1602Z" fill="#97C4DC"/>
<path d="M29.82 3.11958C30.2955 3.11958 30.7789 3.35355 31.0518 3.82929L33.5231 8.10312L35.9945 12.3769C36.5402 13.3284 35.8542 14.5139 34.7627 14.5139H24.885C23.7936 14.5139 23.1075 13.3284 23.6532 12.3769L26.1246 8.10312L28.596 3.82929C28.8688 3.35355 29.3522 3.11958 29.8278 3.11958M29.8278 0C28.214 0 26.7015 0.873484 25.8985 2.2695L23.4271 6.54333L20.9558 10.8172C20.145 12.221 20.145 13.9601 20.9558 15.3562C21.7666 16.76 23.2712 17.6257 24.885 17.6257H34.7627C36.3765 17.6257 37.889 16.7522 38.692 15.3562C39.495 13.9601 39.5028 12.2132 38.692 10.8172L36.2206 6.54333L33.7492 2.2695C32.9384 0.865685 31.4338 0 29.82 0L29.8278 0Z" fill="#EE8345"/>
<path d="M33.4065 23.5527C34.459 23.5527 35.3165 24.4106 35.3165 25.4634V33.356C35.3165 34.4088 34.459 35.2667 33.4065 35.2667H25.5168C24.4643 35.2667 23.6067 34.4088 23.6067 33.356V25.4634C23.6067 24.4106 24.4643 23.5527 25.5168 23.5527H33.4065ZM33.4065 20.4331H25.5168C22.7414 20.4331 20.4883 22.687 20.4883 25.4634V33.356C20.4883 36.1324 22.7414 38.3863 25.5168 38.3863H33.4065C36.1819 38.3863 38.435 36.1324 38.435 33.356V25.4634C38.435 22.687 36.1819 20.4331 33.4065 20.4331Z" fill="#9DBD87"/>
<path d="M96.509 15.3247C95.5423 15.3247 94.7549 16.1124 94.7549 17.0795V32.3342C94.7549 33.3013 95.5423 34.089 96.509 34.089C97.4757 34.089 98.2631 33.3013 98.2631 32.3342V17.0795C98.2631 16.1124 97.4757 15.3247 96.509 15.3247Z" fill="#D9C89F"/>
<path d="M103.424 10.3647C102.457 10.3647 101.67 11.1524 101.67 12.1195V32.3344C101.67 33.3015 102.457 34.0892 103.424 34.0892C104.391 34.0892 105.178 33.3015 105.178 32.3344V12.1195C105.178 11.1524 104.391 10.3647 103.424 10.3647Z" fill="#D9C89F"/>
<path d="M91.7142 25.1128V24.8243H91.6987C91.5427 20.0045 87.5823 16.1284 82.7253 16.1284C81.7508 16.1284 80.7919 16.2844 79.8719 16.5886C78.4998 17.0487 77.2446 17.8442 76.2389 18.897C74.6251 20.5738 73.7441 22.7887 73.7441 25.1128C73.7441 30.0652 77.7748 34.105 82.7331 34.105C83.6764 34.105 84.6042 33.9568 85.4929 33.6683C86.4129 33.3719 86.9196 32.3815 86.6234 31.4612C86.3271 30.5409 85.337 30.034 84.4171 30.3303C83.8791 30.5019 83.31 30.5955 82.7331 30.5955C79.716 30.5955 77.2524 28.1388 77.2524 25.1128C77.2524 23.6934 77.7903 22.3442 78.7727 21.3225C79.3886 20.683 80.1526 20.1917 80.9868 19.9109C81.5403 19.7237 82.1328 19.6302 82.7253 19.6302C85.7424 19.6302 88.1982 22.0868 88.206 25.105V32.3191C88.206 33.2861 88.9934 34.0738 89.9601 34.0738C90.9268 34.0738 91.7142 33.2861 91.7142 32.3191V25.1128Z" fill="#D9C89F"/>
<path d="M62.6423 16.136C61.6678 16.136 60.7088 16.292 59.7889 16.5961C58.8689 16.9003 58.3778 17.8985 58.6818 18.8188C58.9859 19.7391 59.9838 20.2304 60.9037 19.9263C61.4651 19.7391 62.0498 19.6455 62.6423 19.6455C65.6594 19.6455 68.123 22.1022 68.123 25.1282C68.123 28.1542 65.6672 30.6108 62.6423 30.6108C59.6174 30.6108 57.1694 28.1542 57.1616 25.136V12.1195C57.1616 11.1524 56.3742 10.3647 55.4075 10.3647C54.4407 10.3647 53.6533 11.1524 53.6533 12.1195V25.1204V25.7521H53.6845C54.0119 30.4159 57.8944 34.1048 62.6345 34.1048C67.3745 34.1048 71.6234 30.0727 71.6234 25.1126C71.6234 20.1524 67.5928 16.1204 62.6345 16.1204L62.6423 16.136Z" fill="#D9C89F"/>
<path d="M96.509 13.8743C97.4778 13.8743 98.2631 13.0886 98.2631 12.1195C98.2631 11.1504 97.4778 10.3647 96.509 10.3647C95.5402 10.3647 94.7549 11.1504 94.7549 12.1195C94.7549 13.0886 95.5402 13.8743 96.509 13.8743Z" fill="#D9C89F"/>
<path d="M124.7 19.5678C124.7 18.6007 123.912 17.813 122.945 17.813C121.979 17.813 121.191 18.6007 121.191 19.5678V25.9473C121.191 28.5912 119.04 30.7437 116.397 30.7437C113.754 30.7437 111.602 28.5912 111.602 25.9473V19.5678C111.602 18.6007 110.815 17.813 109.848 17.813C108.881 17.813 108.094 18.6007 108.094 19.5678V25.9473C108.094 30.5253 111.82 34.2532 116.397 34.2532C118.182 34.2532 119.835 33.6839 121.191 32.7168V36.6943C121.191 39.3381 119.04 41.4906 116.397 41.4906C113.754 41.4906 111.602 39.3381 111.602 36.6943C111.602 35.7272 110.815 34.9395 109.848 34.9395C108.881 34.9395 108.094 35.7272 108.094 36.6943C108.094 41.2723 111.82 45.0002 116.397 45.0002C120.973 45.0002 124.7 41.2723 124.7 36.6943V19.5756V19.5678Z" fill="#D9C89F"/>
<path d="M139.176 10.5132C135.504 10.5132 132.519 13.5002 132.519 17.1735C132.519 17.2203 132.534 17.2593 132.542 17.2983C132.534 17.3373 132.519 17.3763 132.519 17.4231V33.4499C132.519 33.7697 132.784 34.0348 133.103 34.0348C133.423 34.0348 133.688 33.7697 133.688 33.4499V17.4231C133.688 17.3763 133.672 17.3373 133.665 17.2983C133.672 17.2593 133.688 17.2203 133.688 17.1735C133.688 14.1475 136.152 11.683 139.176 11.683C142.201 11.683 144.665 14.1475 144.665 17.1735C144.665 20.1995 142.201 22.664 139.176 22.664C138.584 22.664 137.991 22.5704 137.43 22.3832C137.126 22.2818 136.791 22.4456 136.689 22.7498C136.588 23.0539 136.752 23.3893 137.056 23.4907C137.734 23.7168 138.444 23.8338 139.169 23.8338C142.841 23.8338 145.827 20.8468 145.827 17.1735C145.827 13.5002 142.841 10.5132 139.169 10.5132H139.176Z" fill="#95C9C9"/>
<path d="M174.415 32.8649H172.723C170.384 32.8649 168.49 30.962 168.49 28.6301V18.0937H174.415C174.734 18.0937 175 17.8285 175 17.5087C175 17.189 174.734 16.9238 174.415 16.9238H168.49V13.851C168.49 13.5313 168.225 13.2661 167.905 13.2661C167.585 13.2661 167.32 13.5313 167.32 13.851V16.9238H165.582C165.262 16.9238 164.997 17.189 164.997 17.5087C164.997 17.8285 165.262 18.0937 165.582 18.0937H167.32V28.6301C167.32 31.6093 169.745 34.0347 172.723 34.0347H174.415C174.734 34.0347 175 33.7696 175 33.4498C175 33.1301 174.734 32.8649 174.415 32.8649Z" fill="#95C9C9"/>
<path d="M155.167 17.3764C159.439 17.3764 162.916 20.8547 162.916 25.1286C162.916 29.4024 159.439 32.8807 155.167 32.8807C150.895 32.8807 147.417 29.4024 147.417 25.1286C147.417 20.8547 150.895 17.3764 155.167 17.3764ZM155.167 16.2065C150.24 16.2065 146.248 20.1996 146.248 25.1286C146.248 30.0575 150.24 34.0506 155.167 34.0506C160.094 34.0506 164.086 30.0575 164.086 25.1286C164.086 20.1996 160.094 16.2065 155.167 16.2065Z" fill="#95C9C9"/>
</g>
<defs>
<clipPath id="clip0_86_816">
<rect width="175" height="45" fill="white"/>
</clipPath>
</defs>
</svg>
