<svg width="120" height="37" viewBox="0 0 120 37" fill="none" xmlns="http://www.w3.org/2000/svg">
<g clip-path="url(#clip0_383_248)">
<path d="M118.776 19.3139C118.29 18.5111 117.539 17.8167 116.546 17.2526C115.552 16.6884 114.117 16.1894 112.174 15.6903C110.32 15.2346 109.039 14.7356 108.355 14.1931C107.714 13.6941 107.405 12.978 107.405 12.0233C107.405 11.0685 107.781 10.2657 108.575 9.65815C109.37 9.02889 110.474 8.72512 111.821 8.72512C113.168 8.72512 114.36 9.11569 115.243 9.85343C116.148 10.6129 116.568 11.5242 116.568 12.6525V12.978H119.416V12.6525C119.416 10.7214 118.709 9.11569 117.318 7.90058C115.927 6.70716 114.073 6.09961 111.821 6.09961C109.723 6.09961 107.957 6.66377 106.61 7.79208C105.242 8.9204 104.535 10.3742 104.535 12.1101C104.535 13.2167 104.778 14.1497 105.286 14.9526C105.771 15.7337 106.544 16.3847 107.56 16.9271C108.553 17.4479 109.944 17.9035 111.711 18.3158C113.388 18.6847 114.669 19.2271 115.486 19.8781C116.281 20.5073 116.656 21.3319 116.656 22.3734C116.656 23.3498 116.237 24.1527 115.376 24.7819C114.514 25.4329 113.344 25.7801 111.909 25.7801C110.364 25.7801 109.127 25.4329 108.2 24.7168C107.273 24.0225 106.809 23.0678 106.721 21.8093V21.5055H103.851V21.831C103.851 23.7187 104.601 25.3027 106.103 26.5395C107.582 27.7546 109.525 28.3839 111.887 28.3839C114.117 28.3839 115.95 27.8197 117.34 26.7348C118.754 25.6282 119.482 24.1093 119.482 22.2649C119.482 21.1366 119.239 20.1385 118.731 19.3356L118.776 19.3139Z" fill="#636363"/>
<path d="M78.1289 17.2743V36.3472H80.977V24.6083C83.0524 26.9518 86.0771 28.449 89.4993 28.449C95.7916 28.449 100.87 23.4366 100.87 17.2743C100.87 11.1119 95.7695 6.09961 89.4993 6.09961C83.229 6.09961 78.1289 11.1119 78.1289 17.2743ZM95.5488 23.198C93.915 24.8253 91.8837 25.6499 89.4993 25.6499C87.1148 25.6499 85.0836 24.847 83.4498 23.198C81.816 21.5489 80.977 19.5743 80.977 17.2309C80.977 14.8875 81.7939 12.8912 83.4498 11.2638C85.1057 9.63645 87.1148 8.81191 89.4993 8.81191C91.8837 8.81191 93.915 9.63645 95.5488 11.2638C97.1826 12.8912 98.0215 14.8875 98.0215 17.2309C98.0215 19.5743 97.2046 21.5706 95.5488 23.198Z" fill="#636363"/>
<path d="M14.0355 9.33268V6.59868H7.80935V0.65332L4.96124 1.49956V6.59868H0.413086V9.33268H4.96124V27.8631H7.80935V9.33268H14.0355Z" fill="#636363"/>
<path d="M33.8837 21.8095C32.3603 24.1095 29.755 25.6284 26.7745 25.6284C22.5354 25.6284 19.0249 22.5906 18.3626 18.5981H37.9682C38.0345 18.1424 38.1007 17.6868 38.1007 17.2094C38.1007 11.0688 33.0227 6.07812 26.7745 6.07812C20.5263 6.07812 15.4482 11.0688 15.4482 17.2094C15.4482 23.3501 20.5263 28.3407 26.7745 28.3407C30.7927 28.3407 34.3032 26.2793 36.3123 23.1765L33.9058 21.7878L33.8837 21.8095ZM26.7745 8.81212C31.0356 8.81212 34.5461 11.8933 35.2084 15.9075H18.3626C19.0029 11.8933 22.5133 8.81212 26.7965 8.81212H26.7745Z" fill="#636363"/>
<path d="M64.5288 6.09961C61.5703 6.09961 58.9871 7.5751 57.4637 9.83174C55.9403 7.5968 53.335 6.09961 50.3986 6.09961C45.6959 6.09961 41.8984 9.83174 41.8984 14.4535V27.8631H44.7465V14.3667C44.7465 11.3072 47.2635 8.83361 50.3765 8.83361C53.4896 8.83361 56.0065 11.3072 56.0065 14.3667V27.8631H58.8767V14.3667C58.8767 11.3072 61.3937 8.83361 64.5067 8.83361C67.6198 8.83361 70.1367 11.3072 70.1367 14.3667V27.8631H73.0069V14.4535C73.0069 9.83174 69.2094 6.09961 64.5067 6.09961H64.5288Z" fill="#636363"/>
</g>
<defs>
<clipPath id="clip0_383_248">
<rect width="119.091" height="35.6939" fill="white" transform="translate(0.413086 0.65332)"/>
</clipPath>
</defs>
</svg>
