<svg width="63" height="39" viewBox="0 0 63 39" fill="none" xmlns="http://www.w3.org/2000/svg">
<g clip-path="url(#clip0_138_684)">
<path d="M62.2414 32.7091C62.0729 32.437 61.8201 32.1962 61.4935 32.0078C61.167 31.8194 60.6825 31.6415 60.0189 31.4845C59.3974 31.3275 58.9655 31.16 58.7338 30.9716C58.5231 30.7937 58.4178 30.5634 58.4178 30.2389C58.4178 29.9144 58.5442 29.6423 58.8075 29.433C59.0814 29.2236 59.4395 29.119 59.8925 29.119C60.3454 29.119 60.7457 29.2446 61.0406 29.5062C61.3461 29.7574 61.483 30.0714 61.483 30.4587V30.5739H62.4415V30.4587C62.4415 29.7993 62.1993 29.255 61.7358 28.8468C61.2723 28.4386 60.6509 28.2293 59.8925 28.2293C59.1867 28.2293 58.5969 28.4177 58.1439 28.805C57.6805 29.1922 57.4487 29.6842 57.4487 30.2703C57.4487 30.6471 57.533 30.9611 57.7015 31.2333C57.8701 31.4949 58.1229 31.7252 58.4599 31.9032C58.7865 32.0811 59.2605 32.2381 59.8503 32.3742C60.4191 32.4998 60.8405 32.6777 61.1249 32.908C61.3882 33.1278 61.5146 33.3999 61.5146 33.7558C61.5146 34.0907 61.3777 34.3524 61.0933 34.5722C60.7983 34.792 60.4086 34.9072 59.9241 34.9072C59.4079 34.9072 58.9866 34.7816 58.6811 34.5513C58.3757 34.3105 58.2071 33.9965 58.1861 33.5674V33.4627H57.2275V33.5779C57.2275 34.2163 57.4803 34.7606 57.9859 35.1793C58.481 35.598 59.1341 35.8073 59.9346 35.8073C60.6825 35.8073 61.3039 35.6189 61.7674 35.2421C62.2414 34.8653 62.4837 34.3524 62.4837 33.7244C62.4837 33.3371 62.3994 33.0022 62.2309 32.73L62.2414 32.7091Z" fill="white"/>
<path d="M48.6006 32.0183V38.4973H49.5591V34.5094C50.2543 35.3049 51.276 35.8178 52.4242 35.8178C54.5308 35.8178 56.2372 34.1221 56.2372 32.0288C56.2372 29.9354 54.5308 28.2397 52.4242 28.2397C50.3175 28.2397 48.6111 29.9354 48.6111 32.0288M54.4571 34.0384C53.9094 34.5931 53.2247 34.8653 52.4242 34.8653C51.6236 34.8653 50.939 34.5931 50.3912 34.0384C49.8435 33.4837 49.5591 32.8138 49.5591 32.0078C49.5591 31.2019 49.833 30.532 50.3912 29.9772C50.9495 29.4225 51.6236 29.1504 52.4242 29.1504C53.2247 29.1504 53.9094 29.4225 54.4571 29.9772C55.0048 30.532 55.2892 31.2019 55.2892 32.0078C55.2892 32.8138 55.0154 33.4837 54.4571 34.0384Z" fill="white"/>
<path d="M27.0918 29.3178V28.3967H24.9956V26.3766L24.0371 26.6592V28.3967H22.5098V29.3178H24.0371V35.6084H24.9956V29.3178H27.0918Z" fill="white"/>
<path d="M33.7485 33.5569C33.2324 34.3315 32.3686 34.8548 31.3574 34.8548C29.9354 34.8548 28.7557 33.8186 28.5345 32.4684H35.1178C35.1389 32.3114 35.1705 32.1544 35.1705 31.9974C35.1705 29.9144 33.4641 28.2188 31.368 28.2188C29.2718 28.2188 27.5654 29.9144 27.5654 31.9974C27.5654 34.0803 29.2718 35.7759 31.368 35.7759C32.7162 35.7759 33.896 35.0746 34.5701 34.0279L33.759 33.5569H33.7485ZM31.3574 29.1504C32.79 29.1504 33.9697 30.1971 34.1804 31.5577H28.524C28.7452 30.1971 29.9144 29.1504 31.3469 29.1504H31.3574Z" fill="white"/>
<path d="M44.0291 28.2188C43.039 28.2188 42.1647 28.7212 41.6591 29.4853C41.143 28.7212 40.2792 28.2188 39.2891 28.2188C37.7091 28.2188 36.4346 29.4853 36.4346 31.0553V35.6084H37.3931V31.0239C37.3931 29.9877 38.2358 29.1504 39.2786 29.1504C40.3214 29.1504 41.164 29.9877 41.164 31.0239V35.6084H42.1331V31.0239C42.1331 29.9877 42.9758 29.1504 44.0186 29.1504C45.0614 29.1504 45.904 29.9877 45.904 31.0239V35.6084H46.8731V31.0553C46.8731 29.4853 45.5986 28.2188 44.0186 28.2188H44.0291Z" fill="white"/>
<path fill-rule="evenodd" clip-rule="evenodd" d="M17.6117 0H18.2121V17.5007H35.8343V18.0973H18.2121V35.6084H17.6117V18.0973H0V17.5007H17.6117V0Z" fill="white"/>
</g>
<defs>
<clipPath id="clip0_138_684">
<rect width="63" height="39" fill="white"/>
</clipPath>
</defs>
</svg>
