<svg width="1146" height="420" viewBox="0 0 1146 420" fill="none" xmlns="http://www.w3.org/2000/svg">
<g clip-path="url(#clip0_86_877)">
<g opacity="0.9" clip-path="url(#clip1_86_877)">
<path d="M801.811 31.2964C801.811 31.2964 801.852 31.2686 801.88 31.2548C801.88 31.2548 801.852 31.2686 801.811 31.2964Z" stroke="white" stroke-width="0.5" stroke-miterlimit="10"/>
<path d="M820.298 391.268C757.492 369.324 712.436 293.893 704.243 251.377C696.161 209.451 718.853 172.874 719.494 171.859C715.576 177.605 711.016 184.641 705.609 193.775C679.667 237.662 690.59 313.093 747.935 367.952C805.279 422.812 876.277 424.183 906.315 415.954C936.352 407.725 956.833 385.782 956.833 385.782C956.833 385.782 959.591 382.806 963.755 378.362C925.621 410.715 883.104 413.211 820.298 391.268Z" stroke="white" stroke-width="0.5" stroke-miterlimit="10"/>
<path d="M757.492 137.544C762.953 211.604 839.413 292.521 910.411 317.208C981.409 341.894 1052.41 335.037 1089.27 260.977C1119.31 200.632 1098.15 87.4854 986.188 27.1404C874.229 -33.2046 801.866 31.2548 801.866 31.2548C801.838 31.2548 801.825 31.2822 801.798 31.296C799.941 32.5303 752.126 64.9246 757.492 137.544Z" stroke="white" stroke-width="0.5" stroke-miterlimit="10"/>
<path d="M910.41 317.208C839.412 292.521 762.953 211.604 757.492 137.544C752.139 64.9245 799.94 32.5302 801.797 31.2959C794.875 35.6983 788.69 40.7317 783.16 46.2313C775.364 54.2407 731.891 103.778 764.305 181.432C799.804 266.463 870.802 311.722 928.146 326.808C985.477 341.894 1039.94 333.885 1072.78 291.973C1084.82 275.446 1089.26 260.977 1089.26 260.977C1052.39 335.037 981.395 341.894 910.397 317.208H910.41Z" stroke="white" stroke-width="0.5" stroke-miterlimit="10"/>
<path d="M928.16 326.808C870.816 311.722 799.818 266.463 764.319 181.432C731.906 103.779 775.378 54.2407 783.174 46.2313C762.039 67.2286 750.624 95.0148 745.204 121.087C739.797 147.145 734.377 150.011 719.495 171.859C718.853 172.874 696.174 209.451 704.244 251.377C712.436 293.893 757.492 369.324 820.298 391.268C883.104 413.211 925.607 410.715 963.755 378.362C970.172 371.518 979.962 361.191 988.236 352.866C1001.89 339.151 1010.08 343.266 1044.21 319.951C1056.61 311.489 1065.92 301.395 1072.79 291.973C1039.96 333.885 985.491 341.894 928.16 326.808Z" stroke="white" stroke-width="0.5" stroke-miterlimit="10"/>
<path d="M1048.75 293.413C1048.21 293.522 1047.64 293.66 1046.96 293.893C1038.77 296.636 1016.92 302.122 1016.92 302.122C1016.92 302.122 1010.09 303.493 1007.36 310.35C1007.36 310.35 1005.32 314.451 1003.42 317.948C1012.35 316.001 1036.24 310.405 1042.86 304.865C1047.67 300.846 1048.71 296.403 1048.75 293.413Z" stroke="white" stroke-width="0.25" stroke-miterlimit="10"/>
<path d="M1048.75 293.413C1048.71 296.402 1047.67 300.832 1042.86 304.864C1036.24 310.405 1012.36 316.001 1003.42 317.948C1002.22 320.17 1001.07 322.159 1000.54 322.694C999.172 324.065 1000.54 325.437 1003.95 324.751C1007.36 324.065 1027.84 319.951 1037.4 314.465C1046.96 308.979 1051.05 298.007 1051.05 298.007C1051.05 298.007 1054.45 292.274 1048.75 293.413Z" stroke="white" stroke-width="0.25" stroke-miterlimit="10"/>
<path d="M1008.59 312.586C1008.18 313.203 1008.77 313.999 1009.48 313.779L1035.15 305.578C1036.61 305.111 1037.89 304.22 1038.85 303.013L1041.27 299.968C1041.76 299.351 1041.17 298.446 1040.41 298.665L1020.14 304.22C1015.41 305.523 1011.31 308.485 1008.58 312.586H1008.59Z" stroke="white" stroke-width="0.25" stroke-miterlimit="10"/>
<path d="M972.985 114.215C985.081 125.105 988.536 140.726 980.753 149.106C972.971 157.486 956.942 155.511 944.858 144.717C932.734 133.882 929.143 118.234 936.898 109.772C944.667 101.296 960.86 103.285 972.985 114.215Z" stroke="white" stroke-width="0.5" stroke-miterlimit="10"/>
<path d="M1007.09 81.3548C1048.26 118.11 1059.9 169.966 1033.28 197.423C1006.6 224.935 951.384 217.748 909.796 181.143C867.975 144.333 855.906 91.874 883.022 64.2113C910.069 36.6035 965.693 44.3798 1007.09 81.3411V81.3548Z" stroke="white" stroke-width="0.5" stroke-miterlimit="10"/>
<path d="M968.984 118.59C979.347 127.368 982.487 140.123 975.701 146.651C968.916 153.179 955.576 150.683 945.923 141.672C936.27 132.662 934.154 121.21 940.148 114.997C946.224 108.688 959.017 110.142 968.984 118.59Z" stroke="white" stroke-width="0.5" stroke-miterlimit="10"/>
<path d="M980.698 221.328C980.698 221.328 980.821 221.328 980.999 221.328C980.889 221.328 980.766 221.3 980.657 221.3L980.698 221.328Z" stroke="white" stroke-width="0.5" stroke-miterlimit="10"/>
<path d="M992.331 41.5408C995.062 52.5127 985.518 58.9586 973.899 55.0499C973.858 55.0362 973.817 55.0225 973.763 55.0088C986.529 61.1393 999.008 69.4778 1010.38 79.9559C1016.1 85.2224 1021.24 90.7632 1025.82 96.4959C1025.8 96.4685 1025.78 96.4137 1025.76 96.3862C1023.69 93.6296 1015.53 77.1992 1029.85 74.3054C1040.95 72.0699 1048.2 78.3513 1050.9 81.3C1044.98 74.2231 1038.43 67.3658 1031.26 60.8375C1014.55 45.6141 996.045 33.5451 977.135 24.8911C978.132 25.3711 989.696 31.049 992.304 41.5408H992.331Z" stroke="white" stroke-width="0.25" stroke-miterlimit="10"/>
<path d="M833.951 73.0848C844.874 84.0566 861.081 86.7447 868.003 73.7431C868.098 73.5511 868.208 73.4002 868.303 73.2219C870.843 68.3258 874.092 63.8136 878.161 59.8226C900.034 38.3178 938.004 37.8378 973.776 55.0087C973.817 55.0224 973.858 55.0361 973.913 55.0499C985.518 58.9586 995.076 52.5126 992.345 41.5408C989.737 31.049 978.173 25.3574 977.176 24.8911C928.474 2.61829 876.987 3.08459 846.157 31.2273C839.126 37.6458 833.61 45.0929 829.568 53.2807C827.916 57.2716 826.182 65.2811 833.951 73.0711V73.0848Z" stroke="white" stroke-width="0.5" stroke-miterlimit="10"/>
<path d="M1034.71 228.638C1024.34 216.103 1033.76 206.749 1034.64 205.926C1021.65 217.94 1003.09 223.015 982.665 221.492C986.037 221.959 993.151 223.755 999.172 230.805C1007.35 240.378 1007.65 258.906 987.84 258.605C1019.5 261.828 1048.26 254.106 1067.48 235.084C1058.29 244.218 1045.47 241.639 1034.71 228.652V228.638Z" stroke="white" stroke-width="0.25" stroke-miterlimit="10"/>
<path d="M1050.93 81.3C1048.23 78.3514 1040.97 72.07 1029.88 74.3055C1015.56 77.1993 1023.72 93.6296 1025.78 96.3863C1025.81 96.4137 1025.82 96.4549 1025.85 96.496C1055.38 133.348 1061.16 177.756 1037.39 203.211C1036.5 204.157 1035.59 205.062 1034.64 205.94C1033.76 206.763 1024.34 216.116 1034.71 228.652C1045.47 241.639 1058.28 244.218 1067.48 235.084C1068.63 233.945 1069.76 232.78 1070.84 231.559C1103.38 194.845 1093.56 132.237 1050.95 81.3H1050.93Z" stroke="white" stroke-width="0.5" stroke-miterlimit="10"/>
<path d="M851.701 116.972C863.989 122.458 867.948 133.444 867.948 133.444L867.976 133.471C859.77 111.719 859.538 90.1323 868.303 73.222C868.208 73.4003 868.099 73.5649 868.003 73.7432C861.094 86.7448 844.874 84.0567 833.951 73.0848C826.182 65.2811 827.916 57.2717 829.569 53.2944C818.386 75.9787 818.496 104.492 828.913 133.402C825.24 116.917 839.413 111.486 851.701 116.972Z" stroke="white" stroke-width="0.25" stroke-miterlimit="10"/>
<path d="M999.158 230.805C993.137 223.755 986.024 221.959 982.651 221.492C982.105 221.451 981.546 221.383 980.999 221.342C980.822 221.342 980.699 221.342 980.699 221.342L980.658 221.314C956.218 218.996 929.321 207.366 906.151 186.972C887.951 170.953 875.021 152.164 867.976 133.471L867.949 133.444C867.949 133.444 863.989 122.458 851.701 116.972C839.413 111.486 825.227 116.904 828.913 133.402C838.594 160.27 857.162 187.493 883.828 210.713C916.337 239.034 953.761 255.148 987.84 258.605C1007.65 258.906 1007.35 240.378 999.172 230.805H999.158Z" stroke="white" stroke-width="0.5" stroke-miterlimit="10"/>
<path d="M982.651 221.492C981.873 221.383 981.313 221.342 980.999 221.342C981.545 221.396 982.105 221.451 982.651 221.492Z" stroke="white" stroke-width="0.5" stroke-miterlimit="10"/>
<path d="M900.375 78.6393C901.973 78.2964 904.062 79.3525 905.045 81.012C906.028 82.6715 905.536 84.3172 903.939 84.6875C902.341 85.0578 900.225 83.9881 899.242 82.3012C898.259 80.6142 898.778 78.9959 900.375 78.6393ZM899.447 77.0758C897.003 77.597 896.211 80.0931 897.699 82.644C899.187 85.195 902.423 86.8408 904.867 86.2784C907.311 85.7161 908.035 83.2063 906.533 80.6828C905.031 78.1593 901.864 76.5547 899.433 77.0758H899.447Z" fill="white"/>
<path d="M906.274 88.6786C906.451 88.6375 906.683 88.6923 906.902 88.8706L908.076 89.8581C908.24 89.9952 908.444 90.0775 908.622 90.0638L909.878 89.9678C910.329 89.9404 910.807 90.4341 910.684 90.8044L910.356 91.8741C910.315 92.025 910.356 92.217 910.492 92.3816L911.421 93.5611C911.68 93.8902 911.585 94.2331 911.298 94.3017C911.216 94.3154 911.134 94.3154 911.025 94.3017L909.646 93.9725C909.55 93.9451 909.455 93.9451 909.373 93.9725C909.291 93.9999 909.223 94.0274 909.182 94.0959L908.485 94.9325C908.485 94.9325 908.363 95.0285 908.294 95.056C908.008 95.1245 907.571 94.9051 907.434 94.5485L906.915 93.273C906.847 93.0948 906.683 92.9302 906.492 92.8342L905.14 92.1622C904.662 91.929 904.512 91.353 904.881 91.1884L905.946 90.7358C906.096 90.6672 906.178 90.5301 906.151 90.3518L906.014 89.1175C905.987 88.898 906.11 88.7609 906.287 88.7197M905.345 87.1151C904.567 87.2934 904.144 87.9106 904.226 88.7197L904.294 89.3918L903.72 89.6386C903.01 89.9404 902.71 90.6398 902.928 91.4764C903.147 92.313 903.843 93.1222 904.731 93.5611L905.468 93.9314L905.755 94.6308C906.028 95.2891 906.56 95.8926 907.229 96.2903C907.912 96.688 908.636 96.8389 909.236 96.688C909.564 96.6057 909.837 96.4412 910.028 96.208L910.411 95.7554L911.161 95.9337C911.544 96.0297 911.926 96.0297 912.254 95.9611C912.855 95.8103 913.25 95.3988 913.332 94.8228C913.428 94.2468 913.21 93.5748 912.745 92.9713L912.24 92.3267L912.418 91.7507C912.622 91.0513 912.322 90.1735 911.626 89.4466C910.929 88.7335 909.987 88.322 909.154 88.3769L908.472 88.4317L907.83 87.8969C907.052 87.2523 906.096 86.9505 905.331 87.1288L905.345 87.1151Z" fill="white"/>
<path d="M910.151 76.2941C910.383 76.2392 910.67 76.3078 910.943 76.5135L913.387 78.3787L915.831 80.244C916.377 80.6554 916.404 81.3274 915.899 81.4371L913.564 81.9583L911.216 82.4932C910.697 82.6166 910.014 82.0955 909.987 81.5606L909.878 79.1605L909.769 76.7741C909.769 76.5135 909.919 76.349 910.137 76.2941M909.209 74.7581C908.444 74.9226 907.98 75.5124 908.021 76.2804L908.117 78.6668L908.212 81.0668C908.24 81.8623 908.772 82.74 909.578 83.3572C910.383 83.9744 911.366 84.2487 912.144 84.0704L914.493 83.5355L916.828 83.0006C917.592 82.8223 918.029 82.2326 917.988 81.4509C917.947 80.6691 917.415 79.8051 916.623 79.2016L914.179 77.3364L911.735 75.4849C910.943 74.8815 909.973 74.6072 909.209 74.7718V74.7581Z" fill="white"/>
<path d="M918.002 86.1139C918.507 86.0042 919.162 86.3333 919.49 86.8682L921.907 90.8729C922.234 91.4078 922.098 91.9427 921.593 92.0661L917.838 92.9713C917.333 93.0947 916.664 92.7518 916.336 92.2032L913.919 88.1711C913.592 87.6362 913.742 87.1013 914.247 86.9916L917.988 86.1276M917.046 84.5641L913.305 85.4281C911.981 85.7299 911.585 87.1288 912.431 88.5414L914.848 92.5872C915.694 94.0136 917.483 94.9188 918.807 94.5896L922.562 93.6707C923.873 93.3553 924.241 91.9427 923.381 90.53L920.965 86.539C920.118 85.1401 918.37 84.2624 917.06 84.5641H917.046Z" fill="white"/>
<path d="M944.175 75.4986C943.752 75.5947 943.642 76.0472 943.943 76.5135L948.653 83.8784C948.954 84.3447 949.541 84.6464 949.964 84.5504C950.387 84.4544 950.483 83.9881 950.182 83.5081L945.472 76.157C945.172 75.6907 944.598 75.4026 944.175 75.4986Z" fill="white"/>
<path d="M945.663 72.4677C945.24 72.5637 945.144 73.0025 945.431 73.4688L951.657 83.1515C951.957 83.6178 952.544 83.9195 952.968 83.8235C953.391 83.7275 953.486 83.2612 953.186 82.7949L946.96 73.126C946.66 72.6734 946.086 72.3717 945.663 72.4677Z" fill="white"/>
<path d="M945.077 80.6965L944.995 80.5594C943.438 78.2553 940.517 76.7878 938.359 77.2678C937.922 77.3638 937.54 77.5421 937.226 77.7753C936.748 78.1318 936.434 78.653 936.311 79.2702C936.107 80.2576 936.38 81.4234 937.09 82.5617C938.619 85.0029 941.677 86.5527 943.889 86.0178C944.312 85.9218 944.681 85.7435 944.981 85.5104C945.295 85.2635 945.213 84.7287 944.804 84.3035C944.381 83.8783 943.793 83.7412 943.479 83.988C943.288 84.1252 943.07 84.2349 942.81 84.2898C941.459 84.6052 939.602 83.6589 938.673 82.1777C938.236 81.4782 938.059 80.7651 938.196 80.1753C938.277 79.805 938.469 79.4896 938.755 79.2702C938.946 79.1193 939.179 79.0233 939.438 78.9547C940.776 78.653 942.619 79.5856 943.548 81.0531L945.787 84.5641C946.087 85.0441 946.674 85.3458 947.111 85.2361C947.548 85.1264 947.644 84.6601 947.343 84.1938L945.118 80.6965H945.077Z" fill="white"/>
<path d="M929.307 79.3113C928.856 79.4073 928.474 79.5856 928.146 79.8325C927.818 80.0793 927.9 80.6142 928.31 81.0394C928.733 81.4645 929.334 81.6017 929.662 81.3548C929.853 81.2039 930.099 81.0942 930.372 81.0394C931.751 80.7239 933.607 81.6702 934.536 83.1651C935.464 84.6601 935.109 86.1412 933.73 86.4567C932.351 86.7721 930.467 85.8258 929.539 84.3309L925.579 77.9124C925.293 77.4324 924.692 77.1306 924.241 77.2266C923.791 77.3227 923.668 77.789 923.968 78.269L927.928 84.6875L928.119 85.0029H928.132C929.716 87.2933 932.638 88.7059 934.809 88.1847C936.98 87.6636 937.635 85.2086 936.106 82.7674C934.577 80.3262 931.532 78.7901 929.279 79.2976L929.307 79.3113Z" fill="white"/>
<path d="M942.66 73.1397C942.237 73.2357 942.128 73.6883 942.428 74.1408C942.728 74.5934 943.302 74.8952 943.725 74.7992C944.148 74.7032 944.258 74.2506 943.957 73.798C943.657 73.3454 943.083 73.0437 942.66 73.1397Z" fill="white"/>
<path d="M957.597 74.7581C957.297 74.3055 956.723 74.0037 956.313 74.0997C955.904 74.1958 955.808 74.6346 956.109 75.1009L958.075 78.1182C958.894 79.3799 958.648 80.6143 957.515 80.8886C956.382 81.1629 954.784 80.34 953.965 79.0782L951.999 76.0472C951.699 75.5809 951.125 75.2929 950.702 75.3889C950.279 75.4849 950.183 75.9375 950.483 76.3901L952.45 79.4348C953.869 81.6292 956.641 83.0418 958.607 82.5755C959.372 82.3972 959.891 81.9446 960.177 81.3412L961.42 83.2475C962.253 84.523 962.007 85.7847 960.874 86.059C959.74 86.3333 958.143 85.5242 957.31 84.235C957.01 83.7687 956.423 83.4669 955.999 83.5767C955.576 83.6864 955.494 84.139 955.795 84.6053C957.228 86.8271 960.014 88.2534 961.98 87.7597C963.946 87.2659 964.342 85.0853 962.908 82.8909L957.583 74.7718L957.597 74.7581Z" fill="white"/>
</g>
<g opacity="0.8" clip-path="url(#clip2_86_877)">
<path d="M502.569 241.138C502.085 241.347 501.851 241.918 502.065 242.414L505.405 250.129C505.615 250.614 506.185 250.849 506.68 250.635C507.175 250.42 507.398 249.855 507.183 249.359L503.843 241.644C503.633 241.159 503.064 240.924 502.569 241.138Z" fill="white"/>
<path d="M504.968 237.113C504.484 237.322 504.25 237.892 504.465 238.388L508.894 248.618C509.104 249.103 509.673 249.339 510.168 249.125C510.664 248.91 510.887 248.345 510.672 247.849L506.243 237.619C506.033 237.134 505.463 236.898 504.968 237.113Z" fill="white"/>
<path d="M502.298 247.148L502.234 247.001C501.101 244.599 498.248 243.504 495.795 244.566C495.3 244.78 494.85 245.069 494.457 245.427C493.862 245.965 493.403 246.633 493.13 247.394C492.686 248.59 492.72 249.902 493.232 251.086C494.316 253.59 497.237 254.75 499.735 253.668C500.208 253.464 500.646 253.18 501.038 252.85C501.436 252.503 501.475 251.884 501.128 251.485C500.782 251.086 500.163 251.045 499.765 251.392C499.534 251.599 499.261 251.771 498.969 251.897C497.438 252.56 495.663 251.855 494.999 250.321C494.687 249.599 494.664 248.806 494.934 248.073C495.108 247.609 495.383 247.195 495.741 246.88C495.983 246.668 496.251 246.485 496.555 246.353C498.074 245.695 499.861 246.395 500.525 247.929L502.107 251.584C502.317 252.069 502.886 252.304 503.381 252.09C503.877 251.875 504.1 251.31 503.885 250.814L502.307 247.171L502.298 247.148Z" fill="white"/>
<path d="M485.639 248.949C485.144 249.164 484.694 249.452 484.301 249.81C483.908 250.167 483.864 250.776 484.227 251.181C484.585 251.575 485.192 251.62 485.596 251.258C485.839 251.046 486.107 250.863 486.411 250.731C487.941 250.069 489.716 250.773 490.38 252.307C491.044 253.841 490.343 255.618 488.813 256.281C487.283 256.943 485.508 256.238 484.844 254.704L481.992 248.117C481.782 247.633 481.212 247.397 480.717 247.611C480.222 247.826 479.999 248.391 480.214 248.887L483.061 255.463L483.197 255.779L483.209 255.774C484.398 258.058 487.167 259.083 489.564 258.045C491.96 257.007 493.215 254.04 492.131 251.536C491.047 249.032 488.126 247.873 485.628 248.954L485.639 248.949Z" fill="white"/>
<path d="M502.251 240.405C502.742 240.192 502.968 239.621 502.755 239.129C502.542 238.637 501.971 238.41 501.48 238.623C500.989 238.835 500.764 239.407 500.977 239.899C501.19 240.391 501.76 240.617 502.251 240.405Z" fill="white"/>
<path d="M517.737 237.129C517.527 236.644 516.957 236.409 516.462 236.623C515.967 236.838 515.744 237.403 515.959 237.899L517.355 241.125C517.936 242.467 517.314 244.022 515.986 244.597C514.658 245.172 513.093 244.551 512.516 243.22L511.12 239.994C510.91 239.509 510.34 239.274 509.845 239.488C509.35 239.702 509.127 240.268 509.342 240.764L510.738 243.99C511.744 246.313 514.439 247.383 516.757 246.379C517.657 245.99 518.363 245.336 518.84 244.554L519.709 246.561C520.29 247.904 519.667 249.459 518.339 250.034C517.011 250.609 515.446 249.987 514.87 248.656C514.66 248.171 514.09 247.936 513.595 248.15C513.1 248.364 512.877 248.93 513.092 249.426C514.098 251.749 516.793 252.819 519.111 251.816C521.429 250.812 522.493 248.115 521.487 245.792L517.737 237.129Z" fill="white"/>
<path d="M523.064 229.372C521.207 230.176 520.354 232.34 521.159 234.201C521.169 234.224 521.179 234.246 521.2 234.264C521.21 234.287 521.208 234.314 521.218 234.337L524.729 242.446C524.797 242.604 524.991 242.681 525.148 242.613C525.306 242.545 525.382 242.351 525.314 242.193L521.803 234.083C521.803 234.083 521.783 234.038 521.762 234.02C521.753 233.998 521.754 233.971 521.744 233.948C521.08 232.414 521.781 230.637 523.311 229.975C524.842 229.312 526.617 230.017 527.281 231.551C527.945 233.085 527.244 234.862 525.714 235.524C525.41 235.656 525.098 235.737 524.773 235.757C524.591 235.769 524.461 235.933 524.484 236.11C524.496 236.292 524.66 236.422 524.837 236.399C525.223 236.366 525.608 236.266 525.979 236.106C527.836 235.302 528.689 233.138 527.884 231.277C527.078 229.416 524.916 228.557 523.059 229.361L523.064 229.372Z" fill="white"/>
<path d="M545.765 232.978L544.909 233.348C543.728 233.86 542.356 233.315 541.844 232.131L539.534 226.796L542.527 225.5C542.685 225.432 542.761 225.238 542.693 225.08C542.625 224.922 542.431 224.845 542.273 224.913L539.28 226.209L538.606 224.653C538.538 224.495 538.344 224.418 538.187 224.486C538.029 224.554 537.953 224.748 538.021 224.906L538.695 226.463L537.817 226.843C537.659 226.911 537.583 227.105 537.651 227.262C537.72 227.42 537.913 227.497 538.071 227.429L538.949 227.049L541.258 232.384C541.913 233.895 543.671 234.594 545.179 233.941L546.035 233.571C546.192 233.502 546.269 233.309 546.2 233.151C546.132 232.993 545.938 232.916 545.781 232.984L545.765 232.978Z" fill="white"/>
<path d="M532.648 229.348C534.808 228.413 537.326 229.412 538.263 231.578C539.201 233.743 538.207 236.263 536.046 237.198C533.886 238.134 531.368 237.134 530.431 234.969C529.493 232.803 530.487 230.283 532.648 229.348ZM532.394 228.762C529.907 229.838 528.767 232.729 529.846 235.222C530.925 237.715 533.813 238.861 536.3 237.785C538.787 236.708 539.927 233.817 538.848 231.324C537.769 228.832 534.881 227.685 532.394 228.762Z" fill="white"/>
<path d="M440.147 197.542C522.771 180.052 595.042 117.412 584.547 75.6695C580.184 65.0361 576.582 56.1896 576.582 56.1896C576.582 56.1896 566.774 21.8373 512.058 24.1905C457.342 26.5437 419.671 44.9018 384.7 67.1531C349.741 89.3995 336.732 117.531 334.277 122.572C331.827 127.623 327.257 142.808 334.664 159.918C336.871 165.016 339.724 171.388 342.705 178.12C342.739 178.199 342.778 178.289 342.812 178.368C344.313 181.589 361.535 214.177 440.131 197.535L440.147 197.542Z" stroke="white" stroke-width="0.5" stroke-miterlimit="10"/>
<path d="M629.669 153.073C623.031 144.777 603.505 120.726 597.948 107.89C595.043 101.179 589.332 87.3392 584.547 75.6696C595.053 117.407 522.782 180.048 440.146 197.542C361.551 214.184 344.318 181.6 342.828 178.374C349.83 194.147 357.577 211.887 359.743 220.163C362.848 232.024 366.587 247.669 367.981 260.271C369.386 272.868 374.807 301.78 390.345 311.928C390.345 311.928 410.073 329.41 449.767 327.453C489.466 325.507 547.42 309.551 586.504 280.443C625.588 251.335 643.707 232.321 648.809 199.63C648.809 199.63 649.857 188.007 645.78 178.589C641.703 169.171 636.291 161.362 629.664 153.061L629.669 153.073Z" stroke="white" stroke-width="0.5" stroke-miterlimit="10"/>
<path d="M586.509 280.454C547.425 309.562 489.471 325.518 449.772 327.464C410.073 329.41 390.35 311.939 390.35 311.939C390.35 311.939 415.582 358.525 496.648 346.786C577.713 335.048 663.416 268.494 648.814 199.641C643.707 232.321 625.593 251.346 586.509 280.454Z" stroke="white" stroke-width="0.5" stroke-miterlimit="10"/>
<path d="M365.424 153.713C365.424 153.713 393.416 183.246 474.98 146.917C556.544 110.588 554.395 65.8081 554.395 65.8081" stroke="white" stroke-width="0.5" stroke-miterlimit="10"/>
<path d="M393.058 164.423C410.386 166.484 436.811 163.91 474.98 146.917C508.195 132.122 527.535 115.928 538.777 101.927C538.755 101.937 504.09 99.4928 460.203 118.493C416.315 137.493 393.069 164.419 393.063 164.435L393.058 164.423Z" stroke="white" stroke-width="0.5" stroke-miterlimit="10"/>
<path d="M372.853 134.237C371.436 131.797 364.551 123.608 356.876 126.931C352.96 128.626 353.052 132.296 354.089 135.463C354.73 136.11 355.465 136.729 356.312 137.327C365.12 143.505 371.991 154.592 374.823 159.621C375.236 159.804 375.677 159.988 376.117 160.172C379.19 143.44 374.201 136.547 372.865 134.232L372.853 134.237Z" stroke="white" stroke-width="0.5" stroke-miterlimit="10"/>
<path d="M365.153 120.308C353.809 115.803 345.907 127.274 354.094 135.475C353.052 132.296 352.965 128.638 356.881 126.942C364.567 123.615 371.452 131.803 372.858 134.248C374.194 136.563 379.172 143.461 376.111 160.188C378.014 160.972 380.175 161.737 382.649 162.42C388.485 146.702 376.738 124.908 365.157 120.319L365.153 120.308Z" stroke="white" stroke-width="0.5" stroke-miterlimit="10"/>
<path d="M409.192 107.336C409.192 107.336 417.966 129.948 431.627 124.034C445.289 118.119 453.421 106.469 452.387 94.7293C451.353 82.9893 440.649 65.2707 431.714 61.0227C422.78 56.7746 406.559 63.7837 403.176 72.3597C399.794 80.9357 403.64 94.5116 409.192 107.336Z" stroke="white" stroke-width="0.5" stroke-miterlimit="10"/>
<path d="M431.701 114.854C431.701 114.854 449.685 105.033 446.035 88.3314C442.386 71.6301 429.401 65.064 421.457 65.4496C414.89 65.7749 403.16 72.3533 404.936 85.8076C406.712 99.262 415.486 121.874 431.701 114.854Z" stroke="white" stroke-width="0.5" stroke-miterlimit="10"/>
<path d="M538.335 86.4616C538.335 86.4616 535.709 90.5184 522.171 85.0218C508.634 79.5253 495.138 67.0868 499.72 51.8979C504.016 37.6228 520.195 41.413 523.094 46.6269C521.918 43.6941 520.453 40.9267 518.756 39.6926C514.3 36.4384 502.322 34.5124 495.901 45.4218C489.48 56.3312 497.172 76.1976 504.937 82.5591C512.707 88.9319 527.126 95.6939 536.184 95.9376C545.242 96.1812 541.31 91.7898 540.568 90.0754C540.363 89.6017 539.533 88.3941 538.335 86.4616Z" stroke="white" stroke-width="0.5" stroke-miterlimit="10"/>
<path d="M499.716 51.8867C495.145 67.0708 508.63 79.5141 522.167 85.0107C535.704 90.5072 538.331 86.4504 538.331 86.4504C535.193 81.3937 529.554 71.3931 526.12 56.7012C526.12 56.7012 525.335 53.0365 523.98 49.0427C523.752 48.5788 523.575 48.1066 523.474 47.6277C523.355 47.2909 523.22 46.9477 523.085 46.6044C520.191 41.4018 504.012 37.6116 499.711 51.8754L499.716 51.8867Z" stroke="white" stroke-width="0.5" stroke-miterlimit="10"/>
</g>
<g opacity="0.7" clip-path="url(#clip3_86_877)">
<path d="M142.971 118.967C193.958 147.444 260.087 147.753 273.604 121.293C276.167 113.784 278.314 107.549 278.314 107.549C278.314 107.549 288.828 85.2409 259.26 61.5873C229.68 37.9392 201.722 30.3454 173.388 26.0081C145.063 21.6732 125.494 30.3761 121.923 31.8791C118.35 33.3902 109.064 39.2018 105.141 51.46C103.972 55.1124 102.56 59.7202 101.051 64.5734C101.033 64.63 101.013 64.6946 100.995 64.7512C100.312 67.1071 94.4613 91.8702 142.965 118.956L142.971 118.967Z" stroke="white" stroke-width="0.5" stroke-miterlimit="10"/>
<path d="M261.905 182.026C262.22 174.697 262.988 153.323 265.931 144.127C267.47 139.319 270.789 129.532 273.604 121.293C260.095 147.756 193.967 147.447 142.971 118.967C94.467 91.8808 100.309 67.1152 101 64.7618C97.4744 76.1405 93.4417 88.8802 90.8064 94.1657C87.0289 101.74 81.862 111.569 76.8569 118.751C71.8598 125.935 61.5352 143.422 65.0128 155.76C65.0128 155.76 67.3379 173.812 88.9023 190.842C110.467 207.872 147.905 225.938 181.499 228.583C215.093 231.228 233.177 229.586 250.701 214.919C250.701 214.919 256.533 209.356 258.692 202.609C260.851 195.862 261.584 189.344 261.907 182.018L261.905 182.026Z" stroke="white" stroke-width="0.5" stroke-miterlimit="10"/>
<path d="M181.496 228.591C147.902 225.946 110.462 207.888 88.8998 190.85C67.338 173.812 65.0103 155.768 65.0103 155.768C65.0103 155.768 56.9669 191.445 104.527 222.202C152.088 252.959 226.992 257.342 250.699 214.927C233.177 229.586 215.09 231.236 181.496 228.591Z" stroke="white" stroke-width="0.5" stroke-miterlimit="10"/>
<path d="M74.7476 178.34C74.4321 177.962 74.1436 177.612 73.8929 177.282C73.6423 176.953 73.1153 177.069 73.029 177.478C72.5999 179.514 71.7259 183.831 71.744 185.36C71.7475 185.878 71.8343 186.413 71.9857 186.97C71.9935 186.945 73.7504 177.477 74.7476 178.34Z" stroke="white" stroke-width="0.25" stroke-miterlimit="10"/>
<path d="M88.2883 192.899C88.4054 192.367 88.2246 191.819 87.8259 191.451C85.5724 189.367 78.2932 182.565 74.7483 178.34C73.7511 177.477 71.9942 186.945 71.9864 186.97C72.4214 188.588 73.3829 190.285 74.4637 191.637C75.7652 193.274 80.1077 199.181 85.6005 202.8C86.3872 203.319 87.4402 202.783 87.4746 201.841C87.558 199.382 87.7668 195.28 88.2883 192.899Z" stroke="white" stroke-width="0.5" stroke-miterlimit="10"/>
<path d="M85.0282 190.288C83.9971 189.281 78.4377 183.449 78.4377 183.449C78.4377 183.449 76.9893 181.631 76.3997 183.474L75.6808 185.72C75.6808 185.72 75.1558 187.36 76.6379 189.073C78.1225 190.777 83.4853 197.224 83.4853 197.224C83.4853 197.224 85.1437 199.109 86.3283 196.103C87.5129 193.097 86.0619 191.287 85.0308 190.28L85.0282 190.288ZM84.2466 194.261L77.7612 187.009C77.5519 186.773 77.4864 186.449 77.5821 186.15L77.6467 185.948C77.7424 185.649 78.1169 185.564 78.3288 185.793L84.8662 192.686C85.2112 193.055 85.3355 193.585 85.183 194.061C85.0537 194.465 84.5373 194.576 84.2547 194.263L84.2466 194.261Z" stroke="white" stroke-width="0.25" stroke-miterlimit="10"/>
<path d="M123.984 62.2206C123.984 62.2206 125.132 90.2926 184.135 108.499C243.138 126.705 262.383 102.46 262.383 102.46" stroke="white" stroke-width="0.5" stroke-miterlimit="10"/>
<path d="M133.506 80.3494C141.594 89.2982 156.528 99.9749 184.136 108.499C208.163 115.912 225.601 116.29 237.824 114.127C237.808 114.122 220.864 97.0918 189.365 87.011C157.866 76.9302 133.514 80.352 133.503 80.3575L133.506 80.3494Z" stroke="white" stroke-width="0.5" stroke-miterlimit="10"/>
<path d="M136.71 55.4789C137.082 53.5668 137.219 46.1814 131.711 44.4186C128.9 43.519 127.28 45.4678 126.379 47.585C126.419 48.2123 126.521 48.8684 126.69 49.5639C128.468 56.7785 127.004 65.6637 126.192 69.5639C126.325 69.8467 126.47 70.1428 126.616 70.4388C135.825 63.1417 136.362 57.2915 136.718 55.4815L136.71 55.4789Z" stroke="white" stroke-width="0.5" stroke-miterlimit="10"/>
<path d="M139.035 44.74C135.175 37.2423 125.843 39.6095 126.377 47.5931C127.28 45.4679 128.898 43.5271 131.709 44.4267C137.225 46.1921 137.088 53.5775 136.708 55.487C136.352 57.297 135.807 63.1446 126.606 70.4443C127.24 71.7164 128.018 73.0968 128.996 74.5766C139.184 69.0626 142.977 52.3978 139.032 44.7481L139.035 44.74Z" stroke="white" stroke-width="0.5" stroke-miterlimit="10"/>
<path d="M167.871 58.0219C167.871 58.0219 162.157 73.7602 171.962 76.8982C181.767 80.0362 191.301 77.6799 196.101 71.1099C200.902 64.5398 203.384 50.4666 200.663 44.1973C197.941 37.9279 186.305 34.1951 180.643 37.1133C174.981 40.0316 170.811 48.8343 167.871 58.0219Z" stroke="white" stroke-width="0.5" stroke-miterlimit="10"/>
<path d="M176.176 72.1624C176.176 72.1624 190.009 75.2353 195.703 64.8982C201.398 54.561 197.621 45.2458 193.308 41.8345C189.739 39.0177 180.638 37.1027 175.444 44.901C170.251 52.6993 164.537 68.4377 176.176 72.1624Z" stroke="white" stroke-width="0.5" stroke-miterlimit="10"/>
<path d="M244.627 105.89C244.627 105.89 241.414 106.804 236.863 97.7934C232.312 88.7827 230.939 76.1838 240.233 70.3748C248.962 64.9106 255.665 74.2358 254.804 78.2628C255.525 76.2042 256.021 74.1 255.698 72.6873C254.857 68.9708 249.495 62.5243 241.189 65.2734C232.883 68.0226 227.855 81.8423 229.006 88.678C230.155 95.5219 234.59 105.591 239.197 109.836C243.804 114.081 243.753 110.011 244.146 108.783C244.255 108.444 244.372 107.439 244.627 105.89Z" stroke="white" stroke-width="0.5" stroke-miterlimit="10"/>
<path d="M240.236 70.3667C230.95 76.1783 232.315 88.7747 236.866 97.7853C241.417 106.796 244.63 105.882 244.63 105.882C245.295 101.828 246.906 94.0679 251.799 84.8727C251.799 84.8727 253.056 82.6118 254.167 79.9206C254.259 79.576 254.382 79.2499 254.547 78.9554C254.638 78.7263 254.724 78.4865 254.81 78.2466C255.668 74.2277 248.965 64.9025 240.238 70.3586L240.236 70.3667Z" stroke="white" stroke-width="0.5" stroke-miterlimit="10"/>
</g>
</g>
<defs>
<clipPath id="clip0_86_877">
<rect width="1146" height="420" fill="white"/>
</clipPath>
<clipPath id="clip1_86_877">
<rect width="410" height="419" fill="white" transform="translate(691.969 1)"/>
</clipPath>
<clipPath id="clip2_86_877">
<rect width="293.492" height="313.408" fill="white" transform="translate(292.969 101.603) rotate(-23.4091)"/>
</clipPath>
<clipPath id="clip3_86_877">
<rect width="202.966" height="216.348" fill="white" transform="translate(109.944 2.20288) rotate(17.7465)"/>
</clipPath>
</defs>
</svg>
