<svg width="320" height="171" viewBox="0 0 320 171" fill="none" xmlns="http://www.w3.org/2000/svg">
<g opacity="0.6" clip-path="url(#clip0_138_865)">
<g opacity="0.9" clip-path="url(#clip1_138_865)">
<path d="M194.453 12.7093C194.453 12.7093 194.47 12.698 194.481 12.6924C194.481 12.6924 194.47 12.698 194.453 12.7093Z" stroke="white" stroke-width="0.5" stroke-miterlimit="10"/>
<path d="M201.961 158.89C176.456 149.979 158.159 119.347 154.832 102.082C151.55 85.0561 160.765 70.2024 161.026 69.7903C159.434 72.1239 157.583 74.981 155.387 78.6903C144.852 96.5125 149.288 127.144 172.575 149.422C195.862 171.7 224.694 172.257 236.892 168.915C249.09 165.574 257.407 156.663 257.407 156.663C257.407 156.663 258.527 155.454 260.218 153.649C244.732 166.788 227.466 167.801 201.961 158.89Z" stroke="white" stroke-width="0.5" stroke-miterlimit="10"/>
<path d="M176.456 55.8555C178.673 85.9305 209.723 118.79 238.555 128.815C267.386 138.84 296.218 136.056 311.188 105.981C323.386 81.475 314.792 35.527 269.327 11.0214C223.862 -13.4841 194.475 12.6923 194.475 12.6923C194.464 12.6923 194.459 12.7034 194.448 12.709C193.694 13.2102 174.277 26.3653 176.456 55.8555Z" stroke="white" stroke-width="0.5" stroke-miterlimit="10"/>
<path d="M238.555 128.815C209.723 118.79 178.674 85.9306 176.456 55.8555C174.282 26.3653 193.694 13.2102 194.448 12.709C191.637 14.4968 189.125 16.5408 186.879 18.7741C183.714 22.0267 166.06 42.1435 179.222 73.6778C193.638 108.208 222.47 126.588 245.757 132.714C269.039 138.84 291.156 135.588 304.491 118.568C309.381 111.856 311.183 105.981 311.183 105.981C296.213 136.056 267.381 138.84 238.549 128.815H238.555Z" stroke="white" stroke-width="0.5" stroke-miterlimit="10"/>
<path d="M245.763 132.714C222.476 126.588 193.644 108.208 179.228 73.6778C166.065 42.1436 183.719 22.0267 186.885 18.7742C178.302 27.301 173.667 38.5847 171.466 49.1722C169.27 59.7542 167.069 60.9182 161.025 69.7903C160.765 70.2025 151.555 85.0562 154.832 102.082C158.159 119.347 176.456 149.979 201.961 158.89C227.466 167.802 244.726 166.788 260.217 153.65C262.823 150.87 266.799 146.677 270.159 143.296C275.703 137.726 279.03 139.397 292.891 129.929C297.926 126.493 301.707 122.394 304.496 118.568C291.162 135.588 269.044 138.84 245.763 132.714Z" stroke="white" stroke-width="0.5" stroke-miterlimit="10"/>
<path d="M294.732 119.152C294.516 119.197 294.283 119.253 294.006 119.347C290.679 120.461 281.808 122.689 281.808 122.689C281.808 122.689 279.036 123.246 277.927 126.031C277.927 126.031 277.095 127.696 276.324 129.116C279.95 128.325 289.653 126.053 292.342 123.803C294.294 122.171 294.716 120.366 294.732 119.152Z" stroke="white" stroke-width="0.25" stroke-miterlimit="10"/>
<path d="M294.733 119.152C294.716 120.367 294.295 122.165 292.343 123.803C289.654 126.053 279.956 128.325 276.325 129.116C275.837 130.018 275.371 130.826 275.155 131.043C274.6 131.6 275.155 132.157 276.541 131.879C277.927 131.6 286.244 129.929 290.125 127.702C294.006 125.474 295.67 121.018 295.67 121.018C295.67 121.018 297.05 118.69 294.733 119.152Z" stroke="white" stroke-width="0.25" stroke-miterlimit="10"/>
<path d="M278.426 126.938C278.26 127.189 278.498 127.512 278.786 127.423L289.21 124.092C289.803 123.903 290.325 123.541 290.713 123.051L291.694 121.815C291.894 121.564 291.655 121.196 291.345 121.285L283.117 123.541C281.193 124.07 279.529 125.273 278.42 126.938H278.426Z" stroke="white" stroke-width="0.25" stroke-miterlimit="10"/>
<path d="M263.966 46.382C268.878 50.8041 270.281 57.1477 267.121 60.5506C263.96 63.9536 257.451 63.1516 252.544 58.7684C247.621 54.3686 246.162 48.0138 249.312 44.5775C252.466 41.1355 259.042 41.9431 263.966 46.382Z" stroke="white" stroke-width="0.5" stroke-miterlimit="10"/>
<path d="M277.816 33.0375C294.532 47.9636 299.262 69.0217 288.45 80.1717C277.616 91.3441 255.194 88.4257 238.305 73.5608C221.322 58.6124 216.421 37.3093 227.432 26.0757C238.416 14.8644 261.005 18.0223 277.816 33.0319V33.0375Z" stroke="white" stroke-width="0.5" stroke-miterlimit="10"/>
<path d="M262.341 48.1586C266.549 51.723 267.824 56.9026 265.069 59.5537C262.313 62.2048 256.896 61.1911 252.976 57.532C249.056 53.8729 248.197 49.2224 250.631 46.6994C253.098 44.1375 258.293 44.7278 262.341 48.1586Z" stroke="white" stroke-width="0.5" stroke-miterlimit="10"/>
<path d="M267.099 89.8793C267.099 89.8793 267.149 89.8793 267.221 89.8793C267.176 89.8793 267.126 89.8682 267.082 89.8682L267.099 89.8793Z" stroke="white" stroke-width="0.5" stroke-miterlimit="10"/>
<path d="M271.822 16.8695C272.931 21.325 269.055 23.9427 264.337 22.3554C264.32 22.3498 264.303 22.3442 264.281 22.3387C269.465 24.8282 274.533 28.2144 279.152 32.4695C281.475 34.6082 283.56 36.8582 285.423 39.1863C285.412 39.1751 285.406 39.1528 285.395 39.1417C284.558 38.0222 281.242 31.35 287.058 30.1749C291.566 29.2671 294.51 31.8179 295.608 33.0153C293.202 30.1415 290.54 27.3567 287.629 24.7057C280.843 18.5236 273.33 13.6225 265.651 10.1082C266.056 10.3031 270.752 12.6088 271.811 16.8695H271.822Z" stroke="white" stroke-width="0.25" stroke-miterlimit="10"/>
<path d="M207.506 29.6791C211.941 34.1347 218.523 35.2263 221.334 29.9465C221.373 29.8685 221.417 29.8072 221.456 29.7348C222.487 27.7465 223.807 25.9142 225.459 24.2935C234.341 15.5606 249.761 15.3657 264.288 22.3386C264.304 22.3442 264.321 22.3497 264.343 22.3553C269.056 23.9426 272.937 21.325 271.828 16.8694C270.769 12.6088 266.073 10.2975 265.668 10.1081C245.891 1.06331 224.982 1.25267 212.463 12.6812C209.607 15.2877 207.367 18.3119 205.726 21.6369C205.055 23.2576 204.351 26.5101 207.506 29.6736V29.6791Z" stroke="white" stroke-width="0.5" stroke-miterlimit="10"/>
<path d="M289.032 92.8479C284.818 87.7574 288.644 83.959 289.005 83.6249C283.726 88.5037 276.191 90.5644 267.896 89.9462C269.266 90.1356 272.155 90.8652 274.6 93.7279C277.921 97.6153 278.043 105.14 269.998 105.017C282.856 106.326 294.533 103.19 302.339 95.4655C298.608 99.1748 293.401 98.1277 289.032 92.8535V92.8479Z" stroke="white" stroke-width="0.25" stroke-miterlimit="10"/>
<path d="M295.62 33.0152C294.522 31.8178 291.572 29.267 287.07 30.1748C281.254 31.35 284.569 38.0222 285.406 39.1416C285.418 39.1528 285.423 39.1695 285.434 39.1862C297.427 54.1513 299.772 72.1852 290.119 82.5221C289.759 82.9064 289.387 83.274 289.005 83.6304C288.644 83.9646 284.819 87.7629 289.033 92.8534C293.402 98.1277 298.602 99.1747 302.34 95.4655C302.805 95.0032 303.265 94.5298 303.703 94.0341C316.916 79.1247 312.93 53.7002 295.625 33.0152H295.62Z" stroke="white" stroke-width="0.5" stroke-miterlimit="10"/>
<path d="M214.713 47.5014C219.703 49.7292 221.311 54.1903 221.311 54.1903L221.322 54.2015C217.99 45.3683 217.896 36.602 221.456 29.7349C221.417 29.8073 221.372 29.8741 221.334 29.9465C218.528 35.2263 211.941 34.1347 207.505 29.6792C204.351 26.5102 205.055 23.2576 205.726 21.6425C201.185 30.8543 201.229 42.4332 205.459 54.1736C203.968 47.4791 209.723 45.2736 214.713 47.5014Z" stroke="white" stroke-width="0.25" stroke-miterlimit="10"/>
<path d="M274.595 93.7278C272.15 90.8651 269.261 90.1355 267.892 89.9462C267.67 89.9295 267.443 89.9016 267.221 89.8849C267.149 89.8849 267.099 89.8849 267.099 89.8849L267.082 89.8738C257.157 88.9325 246.235 84.2096 236.826 75.9279C229.435 69.4227 224.184 61.7926 221.323 54.2014L221.312 54.1903C221.312 54.1903 219.704 49.7292 214.714 47.5014C209.724 45.2736 203.963 47.4735 205.46 54.1736C209.391 65.0841 216.932 76.1395 227.76 85.5686C240.962 97.0695 256.159 103.614 269.999 105.017C278.044 105.14 277.922 97.6153 274.601 93.7278H274.595Z" stroke="white" stroke-width="0.5" stroke-miterlimit="10"/>
<path d="M267.892 89.9462C267.576 89.9016 267.348 89.8849 267.221 89.8849C267.442 89.9072 267.67 89.9294 267.892 89.9462Z" stroke="white" stroke-width="0.5" stroke-miterlimit="10"/>
<path d="M234.48 31.9348C235.129 31.7956 235.977 32.2244 236.376 32.8983C236.775 33.5722 236.576 34.2405 235.927 34.3909C235.278 34.5413 234.419 34.1069 234.02 33.4218C233.621 32.7368 233.831 32.0796 234.48 31.9348ZM234.103 31.2999C233.11 31.5115 232.789 32.5252 233.393 33.5611C233.998 34.597 235.312 35.2653 236.304 35.037C237.297 34.8086 237.59 33.7894 236.981 32.7646C236.371 31.7399 235.084 31.0882 234.097 31.2999H234.103Z" fill="white"/>
<path d="M236.875 36.0116C236.947 35.9949 237.041 36.0172 237.13 36.0896L237.607 36.4906C237.674 36.5463 237.757 36.5797 237.829 36.5741L238.339 36.5351C238.522 36.524 238.716 36.7245 238.666 36.8749L238.533 37.3093C238.516 37.3705 238.533 37.4485 238.588 37.5153L238.965 37.9943C239.071 38.128 239.032 38.2672 238.916 38.2951C238.882 38.3006 238.849 38.3006 238.805 38.2951L238.245 38.1614C238.206 38.1503 238.167 38.1503 238.134 38.1614C238.1 38.1725 238.073 38.1837 238.056 38.2115L237.773 38.5513C237.773 38.5513 237.723 38.5902 237.696 38.6014C237.579 38.6292 237.402 38.5401 237.346 38.3953L237.136 37.8773C237.108 37.8049 237.041 37.7381 236.964 37.6991L236.415 37.4262C236.221 37.3315 236.16 37.0976 236.31 37.0308L236.742 36.847C236.803 36.8192 236.836 36.7635 236.825 36.6911L236.77 36.1898C236.759 36.1007 236.809 36.045 236.881 36.0283M236.498 35.3767C236.182 35.4491 236.01 35.6997 236.043 36.0283L236.071 36.3012L235.838 36.4014C235.55 36.524 235.428 36.808 235.517 37.1478C235.605 37.4875 235.888 37.8161 236.249 37.9943L236.548 38.1447L236.664 38.4287C236.775 38.6961 236.992 38.9411 237.263 39.1026C237.54 39.2641 237.834 39.3254 238.078 39.2641C238.211 39.2307 238.322 39.1639 238.4 39.0692L238.555 38.8854L238.86 38.9578C239.015 38.9968 239.171 38.9968 239.304 38.969C239.548 38.9077 239.708 38.7406 239.742 38.5067C239.78 38.2728 239.692 37.9999 239.503 37.7548L239.298 37.4931L239.37 37.2591C239.453 36.9751 239.331 36.6187 239.049 36.3235C238.766 36.0339 238.383 35.8668 238.045 35.8891L237.768 35.9113L237.507 35.6941C237.191 35.4324 236.803 35.3098 236.493 35.3822L236.498 35.3767Z" fill="white"/>
<path d="M238.45 30.9824C238.544 30.9601 238.661 30.988 238.772 31.0715L239.764 31.829L240.756 32.5864C240.978 32.7535 240.989 33.0264 240.784 33.0709L239.836 33.2826L238.882 33.4998C238.672 33.5499 238.394 33.3383 238.383 33.1211L238.339 32.1464L238.295 31.1773C238.295 31.0715 238.356 31.0047 238.444 30.9824M238.067 30.3586C237.757 30.4255 237.568 30.6649 237.585 30.9768L237.624 31.9459L237.663 32.9206C237.674 33.2436 237.89 33.6 238.217 33.8507C238.544 34.1013 238.943 34.2127 239.259 34.1403L240.213 33.9231L241.161 33.7059C241.472 33.6335 241.649 33.394 241.633 33.0765C241.616 32.7591 241.4 32.4082 241.078 32.1631L240.086 31.4057L239.093 30.6538C238.772 30.4088 238.378 30.2974 238.067 30.3642V30.3586Z" fill="white"/>
<path d="M241.638 34.9701C241.843 34.9255 242.109 35.0592 242.242 35.2764L243.223 36.9027C243.356 37.1199 243.301 37.3371 243.096 37.3872L241.571 37.7548C241.366 37.8049 241.094 37.6657 240.961 37.4429L239.98 35.8055C239.847 35.5883 239.908 35.3711 240.113 35.3265L241.632 34.9757M241.249 34.3408L239.73 34.6916C239.192 34.8142 239.032 35.3822 239.375 35.9559L240.357 37.5989C240.701 38.1781 241.427 38.5457 241.965 38.412L243.489 38.0389C244.022 37.9108 244.171 37.3371 243.822 36.7635L242.841 35.1428C242.497 34.5747 241.787 34.2182 241.255 34.3408H241.249Z" fill="white"/>
<path d="M252.267 30.6593C252.095 30.6983 252.051 30.8821 252.173 31.0715L254.086 34.0623C254.208 34.2516 254.446 34.3742 254.618 34.3352C254.79 34.2962 254.828 34.1068 254.707 33.9119L252.794 30.9267C252.672 30.7373 252.439 30.6204 252.267 30.6593Z" fill="white"/>
<path d="M252.871 29.4285C252.699 29.4675 252.66 29.6457 252.777 29.8351L255.305 33.7671C255.427 33.9565 255.665 34.079 255.837 34.04C256.009 34.001 256.048 33.8117 255.926 33.6223L253.398 29.6958C253.276 29.5121 253.043 29.3895 252.871 29.4285Z" fill="white"/>
<path d="M252.632 32.7702L252.599 32.7145C251.967 31.7789 250.781 31.1829 249.904 31.3779C249.727 31.4169 249.572 31.4893 249.444 31.5839C249.25 31.7287 249.123 31.9404 249.073 32.191C248.99 32.592 249.101 33.0654 249.389 33.5277C250.01 34.519 251.252 35.1484 252.15 34.9312C252.322 34.8922 252.472 34.8198 252.594 34.7251C252.721 34.6249 252.688 34.4077 252.522 34.235C252.35 34.0623 252.111 34.0066 251.984 34.1069C251.906 34.1626 251.817 34.2071 251.712 34.2294C251.163 34.3575 250.409 33.9732 250.032 33.3717C249.855 33.0877 249.782 32.7981 249.838 32.5586C249.871 32.4082 249.949 32.2801 250.065 32.191C250.143 32.1297 250.237 32.0908 250.342 32.0629C250.886 31.9404 251.634 32.3191 252.011 32.915L252.921 34.3408C253.043 34.5357 253.281 34.6583 253.459 34.6137C253.636 34.5692 253.675 34.3798 253.553 34.1904L252.649 32.7702H252.632Z" fill="white"/>
<path d="M246.229 32.2077C246.046 32.2466 245.891 32.319 245.758 32.4193C245.624 32.5195 245.658 32.7368 245.824 32.9094C245.996 33.0821 246.24 33.1378 246.373 33.0375C246.451 32.9762 246.55 32.9317 246.661 32.9094C247.221 32.7813 247.975 33.1656 248.352 33.7727C248.729 34.3797 248.585 34.9812 248.025 35.1093C247.465 35.2374 246.7 34.8531 246.323 34.2461L244.715 31.6396C244.599 31.4446 244.355 31.3221 244.172 31.3611C243.989 31.4001 243.939 31.5895 244.061 31.7844L245.669 34.3909L245.746 34.519H245.752C246.395 35.4491 247.582 36.0227 248.463 35.8111C249.345 35.5995 249.611 34.6025 248.99 33.6112C248.369 32.6198 247.133 31.996 246.218 32.2021L246.229 32.2077Z" fill="white"/>
<path d="M251.652 29.7015C251.48 29.7404 251.435 29.9242 251.557 30.108C251.679 30.2918 251.912 30.4143 252.084 30.3754C252.256 30.3364 252.3 30.1526 252.178 29.9688C252.056 29.785 251.824 29.6625 251.652 29.7015Z" fill="white"/>
<path d="M257.718 30.3586C257.596 30.1748 257.363 30.0522 257.196 30.0912C257.03 30.1302 256.991 30.3084 257.113 30.4978L257.912 31.7231C258.244 32.2355 258.144 32.7367 257.684 32.8481C257.224 32.9595 256.575 32.6253 256.243 32.1129L255.444 30.8821C255.322 30.6927 255.089 30.5758 254.918 30.6148C254.746 30.6537 254.707 30.8375 254.829 31.0213L255.627 32.2577C256.204 33.1489 257.329 33.7225 258.128 33.5331C258.438 33.4607 258.649 33.277 258.765 33.0319L259.27 33.8061C259.608 34.324 259.508 34.8364 259.048 34.9478C258.588 35.0592 257.939 34.7306 257.601 34.2071C257.479 34.0177 257.241 33.8952 257.069 33.9397C256.897 33.9843 256.864 34.1681 256.986 34.3574C257.568 35.2597 258.699 35.8389 259.497 35.6384C260.296 35.4379 260.457 34.5524 259.874 33.6612L257.712 30.3641L257.718 30.3586Z" fill="white"/>
</g>
<g opacity="0.8" clip-path="url(#clip2_138_865)">
<path d="M72.9343 97.924C72.7378 98.0091 72.6426 98.2406 72.7299 98.4422L74.0862 101.575C74.1715 101.772 74.4028 101.868 74.6039 101.781C74.805 101.694 74.8955 101.464 74.8082 101.262L73.4519 98.1296C73.3667 97.9326 73.1353 97.837 72.9343 97.924Z" fill="white"/>
<path d="M73.9079 96.2894C73.7114 96.3745 73.6163 96.606 73.7035 96.8075L75.502 100.962C75.5873 101.159 75.8186 101.254 76.0197 101.167C76.2208 101.08 76.3113 100.851 76.2241 100.649L74.4256 96.4949C74.3403 96.298 74.109 96.2023 73.9079 96.2894Z" fill="white"/>
<path d="M72.8242 100.365L72.7984 100.305C72.3381 99.3297 71.1797 98.8849 70.1834 99.3162C69.9824 99.4033 69.7998 99.5204 69.6401 99.6657C69.3985 99.8845 69.2119 100.156 69.1015 100.464C68.9212 100.95 68.9347 101.483 69.1429 101.964C69.5831 102.981 70.7692 103.452 71.7837 103.013C71.9756 102.929 72.1537 102.814 72.3126 102.68C72.4742 102.539 72.4901 102.288 72.3494 102.126C72.2087 101.964 71.9574 101.947 71.7959 102.088C71.702 102.172 71.5912 102.242 71.4723 102.293C70.8508 102.562 70.13 102.276 69.8604 101.653C69.7335 101.36 69.7242 101.038 69.834 100.74C69.9045 100.552 70.0162 100.384 70.1615 100.256C70.2599 100.17 70.3688 100.095 70.4922 100.042C71.1091 99.7748 71.8345 100.059 72.1042 100.682L72.7466 102.166C72.8319 102.363 73.0632 102.459 73.2643 102.371C73.4654 102.284 73.5559 102.055 73.4687 101.853L72.8282 100.374L72.8242 100.365Z" fill="white"/>
<path d="M66.059 101.096C65.8579 101.183 65.6753 101.3 65.5157 101.446C65.3561 101.591 65.3382 101.838 65.4855 102.002C65.6308 102.163 65.8775 102.181 66.0416 102.034C66.14 101.948 66.2489 101.873 66.3723 101.82C66.9938 101.551 67.7146 101.837 67.9843 102.46C68.254 103.083 67.9694 103.804 67.3479 104.073C66.7264 104.342 66.0056 104.056 65.7359 103.433L64.5779 100.758C64.4926 100.561 64.2613 100.466 64.0602 100.553C63.8592 100.64 63.7686 100.869 63.8559 101.071L65.0119 103.741L65.0674 103.869L65.072 103.868C65.555 104.795 66.6793 105.211 67.6527 104.79C68.6261 104.368 69.1354 103.163 68.6952 102.147C68.255 101.13 67.069 100.659 66.0544 101.098L66.059 101.096Z" fill="white"/>
<path d="M72.8052 97.6263C73.0046 97.54 73.0961 97.308 73.0095 97.1082C72.923 96.9084 72.6913 96.8163 72.4919 96.9027C72.2925 96.989 72.201 97.221 72.2875 97.4208C72.374 97.6206 72.6058 97.7127 72.8052 97.6263Z" fill="white"/>
<path d="M79.0931 96.2962C79.0078 96.0993 78.7765 96.0036 78.5754 96.0907C78.3744 96.1777 78.2838 96.4073 78.3711 96.6088L78.9382 97.9188C79.1742 98.4638 78.9212 99.0954 78.382 99.3289C77.8428 99.5623 77.2071 99.31 76.9731 98.7695L76.406 97.4595C76.3208 97.2626 76.0894 97.1669 75.8884 97.254C75.6873 97.341 75.5967 97.5706 75.684 97.7721L76.2511 99.0821C76.6596 100.026 77.7539 100.46 78.6953 100.053C79.0609 99.8943 79.3475 99.6288 79.541 99.3112L79.894 100.126C80.1299 100.672 79.877 101.303 79.3378 101.537C78.7985 101.77 78.1629 101.518 77.9289 100.977C77.8436 100.78 77.6123 100.685 77.4112 100.772C77.2102 100.859 77.1196 101.088 77.2069 101.29C77.6154 102.233 78.7097 102.668 79.6511 102.26C80.5925 101.853 81.0245 100.757 80.616 99.8139L79.0931 96.2962Z" fill="white"/>
<path d="M81.257 93.1461C80.503 93.4725 80.1564 94.3514 80.4835 95.1071C80.4875 95.1163 80.4915 95.1254 80.5 95.1326C80.504 95.1418 80.5034 95.1529 80.5073 95.1621L81.9331 98.4553C81.9608 98.5194 82.0395 98.5506 82.1034 98.5229C82.1674 98.4952 82.1985 98.4165 82.1707 98.3524L80.745 95.0592C80.745 95.0592 80.737 95.0409 80.7285 95.0337C80.7245 95.0245 80.7251 95.0134 80.7212 95.0042C80.4515 94.3813 80.7361 93.6599 81.3576 93.3908C81.9791 93.1217 82.6999 93.4079 82.9695 94.0309C83.2392 94.6538 82.9547 95.3752 82.3332 95.6443C82.2098 95.6977 82.083 95.7308 81.9509 95.7391C81.877 95.7439 81.8244 95.8102 81.8338 95.8822C81.8387 95.9562 81.9051 96.0091 81.977 95.9997C82.1339 95.9862 82.29 95.9458 82.4408 95.8805C83.1949 95.554 83.5415 94.6752 83.2143 93.9194C82.8872 93.1637 82.0091 92.815 81.2551 93.1415L81.257 93.1461Z" fill="white"/>
<path d="M90.4752 94.6102L90.1279 94.7606C89.648 94.9683 89.0911 94.7472 88.8828 94.2662L87.9449 92.0998L89.1605 91.5735C89.2245 91.5458 89.2555 91.4671 89.2278 91.403C89.2 91.3389 89.1214 91.3076 89.0574 91.3353L87.8418 91.8616L87.5682 91.2295C87.5404 91.1654 87.4618 91.1342 87.3978 91.1619C87.3338 91.1896 87.3028 91.2683 87.3305 91.3324L87.6042 91.9645L87.2477 92.1188C87.1838 92.1465 87.1527 92.2252 87.1805 92.2893C87.2082 92.3534 87.2869 92.3847 87.3508 92.357L87.7073 92.2026L88.6452 94.3691C88.9109 94.9829 89.6252 95.2665 90.2375 95.0014L90.5848 94.851C90.6488 94.8233 90.6799 94.7446 90.6521 94.6805C90.6243 94.6164 90.5457 94.5851 90.4817 94.6128L90.4752 94.6102Z" fill="white"/>
<path d="M85.1488 93.1363C86.0262 92.7564 87.0485 93.1623 87.4292 94.0417C87.8099 94.9211 87.4064 95.9443 86.5289 96.3241C85.6515 96.704 84.6293 96.2981 84.2486 95.4187C83.8679 94.5393 84.2714 93.5161 85.1488 93.1363ZM85.0457 92.8981C84.0358 93.3353 83.5727 94.5093 84.0109 95.5216C84.4492 96.5338 85.6221 96.9995 86.632 96.5623C87.642 96.1251 88.105 94.9511 87.6668 93.9388C87.2286 92.9266 86.0557 92.4609 85.0457 92.8981Z" fill="white"/>
<path d="M47.5853 80.22C81.1385 73.1177 110.487 47.6799 106.225 30.7288C104.453 26.4106 102.99 22.8181 102.99 22.8181C102.99 22.8181 99.0076 8.86798 76.7879 9.82357C54.5683 10.7792 39.2702 18.2342 25.069 27.2703C10.8723 36.3044 5.58943 47.7285 4.59262 49.7754C3.59779 51.8268 1.7417 57.9929 4.74978 64.9412C5.64606 67.0115 6.80435 69.5992 8.01497 72.3329C8.02885 72.365 8.04471 72.4016 8.05859 72.4337C8.66822 73.7415 15.6619 86.9756 47.5788 80.2174L47.5853 80.22Z" stroke="white" stroke-width="0.5" stroke-miterlimit="10"/>
<path d="M124.548 62.1615C121.853 58.7927 113.924 49.0257 111.667 43.8133C110.487 41.0881 108.168 35.4678 106.225 30.7288C110.491 47.678 81.1427 73.1158 47.5849 80.22C15.6681 86.9782 8.6698 73.7462 8.06474 72.4364C10.9082 78.8413 14.0541 86.0453 14.934 89.4063C16.1945 94.2231 17.7131 100.576 18.2791 105.694C18.8495 110.809 21.0511 122.55 27.3608 126.671C27.3608 126.671 35.3722 133.77 51.4917 132.976C67.6132 132.186 91.1476 125.706 107.019 113.886C122.891 102.065 130.249 94.3437 132.321 81.0681C132.321 81.0681 132.747 76.348 131.091 72.5234C129.435 68.6989 127.238 65.5278 124.546 62.157L124.548 62.1615Z" stroke="white" stroke-width="0.5" stroke-miterlimit="10"/>
<path d="M107.022 113.89C91.15 125.711 67.6156 132.19 51.4941 132.98C35.3726 133.771 27.3632 126.676 27.3632 126.676C27.3632 126.676 37.6098 145.594 70.5299 140.827C103.45 136.06 138.253 109.033 132.323 81.0727C130.249 94.3437 122.893 102.07 107.022 113.89Z" stroke="white" stroke-width="0.5" stroke-miterlimit="10"/>
<path d="M17.2411 62.4214C17.2411 62.4214 28.6085 74.4146 61.7309 59.6617C94.8533 44.9088 93.9807 26.7242 93.9807 26.7242" stroke="white" stroke-width="0.5" stroke-miterlimit="10"/>
<path d="M28.4623 66.7709C35.499 67.6078 46.2302 66.5624 61.7303 59.6617C75.2184 53.6537 83.0722 47.0774 87.6378 41.3916C87.6286 41.3956 73.5517 40.4032 55.7293 48.119C37.9068 55.8348 28.4669 66.769 28.4643 66.7755L28.4623 66.7709Z" stroke="white" stroke-width="0.5" stroke-miterlimit="10"/>
<path d="M20.2575 54.5125C19.682 53.5217 16.8858 50.1963 13.7691 51.5456C12.1788 52.2341 12.2162 53.7244 12.6374 55.0105C12.8976 55.2732 13.1963 55.5245 13.5402 55.7673C17.117 58.276 19.9074 62.7787 21.0573 64.8207C21.2251 64.8949 21.404 64.9697 21.583 65.0446C22.8305 58.2499 20.8046 55.4504 20.262 54.5106L20.2575 54.5125Z" stroke="white" stroke-width="0.5" stroke-miterlimit="10"/>
<path d="M17.1307 48.8559C12.5241 47.0268 9.31504 51.6848 12.6398 55.0151C12.2167 53.7244 12.1812 52.2387 13.7715 51.5502C16.8927 50.1989 19.689 53.5243 20.2599 54.5171C20.8024 55.457 22.8238 58.2585 21.5808 65.0512C22.3534 65.3693 23.2313 65.68 24.236 65.9575C26.6059 59.5744 21.8356 50.724 17.1327 48.8605L17.1307 48.8559Z" stroke="white" stroke-width="0.5" stroke-miterlimit="10"/>
<path d="M35.0143 43.5881C35.0143 43.5881 38.5773 52.7708 44.1251 50.369C49.6729 47.9672 52.9751 43.2362 52.5553 38.4687C52.1355 33.7013 47.7887 26.5059 44.1604 24.7808C40.5322 23.0557 33.9451 25.902 32.5714 29.3847C31.1977 32.8673 32.7597 38.3804 35.0143 43.5881Z" stroke="white" stroke-width="0.5" stroke-miterlimit="10"/>
<path d="M44.1557 46.6413C44.1557 46.6413 51.4585 42.653 49.9765 35.8707C48.4946 29.0885 43.2216 26.422 39.9956 26.5786C37.3287 26.7107 32.5651 29.3821 33.2863 34.8458C34.0075 40.3095 37.5705 49.4922 44.1557 46.6413Z" stroke="white" stroke-width="0.5" stroke-miterlimit="10"/>
<path d="M87.4587 35.1114C87.4587 35.1114 86.392 36.7588 80.8947 34.5267C75.3974 32.2947 69.9168 27.2435 71.7774 21.0754C73.522 15.2784 80.0923 16.8176 81.2694 18.9349C80.7918 17.7439 80.1967 16.6201 79.5076 16.1189C77.6983 14.7974 72.8341 14.0153 70.2265 18.4455C67.6189 22.8757 70.7425 30.9433 73.8958 33.5266C77.0511 36.1146 82.9066 38.8606 86.5851 38.9595C90.2636 39.0584 88.6667 37.2751 88.3653 36.5789C88.282 36.3866 87.9449 35.8962 87.4587 35.1114Z" stroke="white" stroke-width="0.5" stroke-miterlimit="10"/>
<path d="M71.7757 21.0708C69.9196 27.2369 75.3956 32.2901 80.8929 34.5222C86.3903 36.7543 87.4569 35.1069 87.4569 35.1069C86.1827 33.0534 83.8927 28.9922 82.4981 23.026C82.4981 23.026 82.1794 21.5378 81.6292 19.9159C81.5368 19.7275 81.4646 19.5358 81.4238 19.3413C81.3755 19.2045 81.3206 19.0651 81.2656 18.9257C80.0905 16.813 73.5203 15.2738 71.7737 21.0662L71.7757 21.0708Z" stroke="white" stroke-width="0.5" stroke-miterlimit="10"/>
</g>
</g>
<defs>
<clipPath id="clip0_138_865">
<rect width="320" height="170.558" fill="white"/>
</clipPath>
<clipPath id="clip1_138_865">
<rect width="166.497" height="170.152" fill="white" transform="translate(149.848 0.406128)"/>
</clipPath>
<clipPath id="clip2_138_865">
<rect width="119.185" height="127.272" fill="white" transform="translate(-12.1826 41.26) rotate(-23.4091)"/>
</clipPath>
</defs>
</svg>
