<svg width="81" height="46" viewBox="0 0 81 46" fill="none" xmlns="http://www.w3.org/2000/svg">
<path d="M0.646447 41.6464C0.451184 41.8417 0.451184 42.1583 0.646447 42.3536L3.82843 45.5355C4.02369 45.7308 4.34027 45.7308 4.53553 45.5355C4.7308 45.3403 4.7308 45.0237 4.53553 44.8284L1.70711 42L4.53553 39.1716C4.7308 38.9763 4.7308 38.6597 4.53553 38.4645C4.34027 38.2692 4.02369 38.2692 3.82843 38.4645L0.646447 41.6464ZM1 42.5H75V41.5H1V42.5ZM80.5 37V0H79.5V37H80.5ZM75 42.5C78.0376 42.5 80.5 40.0376 80.5 37H79.5C79.5 39.4853 77.4853 41.5 75 41.5V42.5Z" fill="white"/>
</svg>
