<svg width="20" height="14" viewBox="0 0 20 14" fill="none" xmlns="http://www.w3.org/2000/svg">
<g clip-path="url(#clip0_86_682)">
<path d="M20 0H0V14H20V0ZM0.819048 0.482759H19.181L10 9.56586L0.819048 0.482759ZM0.47619 0.815862L6.51905 6.79L0.47619 13.1407V0.815862ZM19.5238 0.815862V13.1407L13.481 6.79L19.5238 0.815862ZM6.85952 7.12793L9.83571 10.0703C9.92857 10.1597 10.0714 10.1597 10.1643 10.0703L13.1405 7.12793L19.2262 13.5172H0.77381L6.85952 7.12793ZM0.47619 13.4883L0.504762 13.5172H0.47619V13.4883ZM19.5238 13.4883V13.5172H19.4952L19.5238 13.4883Z" fill="white"/>
</g>
<defs>
<clipPath id="clip0_86_682">
<rect width="20" height="14" fill="white"/>
</clipPath>
</defs>
</svg>
