<svg width="131" height="53" viewBox="0 0 131 53" fill="none" xmlns="http://www.w3.org/2000/svg">
<g clip-path="url(#clip0_86_687)">
<path d="M123.776 27.3137C123.29 26.5108 122.539 25.8165 121.546 25.2523C120.552 24.6882 119.117 24.1891 117.174 23.6901C115.32 23.2344 114.039 22.7353 113.355 22.1929C112.714 21.6938 112.405 20.9778 112.405 20.023C112.405 19.0683 112.781 18.2655 113.575 17.6579C114.37 17.0286 115.474 16.7249 116.821 16.7249C118.168 16.7249 119.36 17.1154 120.243 17.8532C121.148 18.6126 121.568 19.524 121.568 20.6523V20.9778H124.416V20.6523C124.416 18.7211 123.709 17.1154 122.318 15.9003C120.927 14.7069 119.073 14.0994 116.821 14.0994C114.723 14.0994 112.957 14.6635 111.61 15.7918C110.242 16.9202 109.535 18.3739 109.535 20.1098C109.535 21.2164 109.778 22.1495 110.286 22.9523C110.771 23.7334 111.544 24.3844 112.56 24.9269C113.553 25.4476 114.944 25.9033 116.711 26.3156C118.388 26.6844 119.669 27.2269 120.486 27.8778C121.281 28.5071 121.656 29.3316 121.656 30.3732C121.656 31.3496 121.237 32.1524 120.376 32.7817C119.514 33.4326 118.344 33.7798 116.909 33.7798C115.364 33.7798 114.127 33.4326 113.2 32.7166C112.273 32.0222 111.809 31.0675 111.721 29.809V29.5052H108.851V29.8307C108.851 31.7185 109.601 33.3024 111.103 34.5393C112.582 35.7544 114.525 36.3836 116.887 36.3836C119.117 36.3836 120.95 35.8195 122.34 34.7345C123.754 33.6279 124.482 32.109 124.482 30.2647C124.482 29.1364 124.239 28.1382 123.731 27.3354L123.776 27.3137Z" fill="white"/>
<path d="M83.1289 25.274V44.3469H85.977V32.6081C88.0524 34.9515 91.0771 36.4487 94.4993 36.4487C100.792 36.4487 105.87 31.4364 105.87 25.274C105.87 19.1117 100.77 14.0994 94.4993 14.0994C88.229 14.0994 83.1289 19.1117 83.1289 25.274ZM100.549 31.1977C98.915 32.8251 96.8837 33.6496 94.4993 33.6496C92.1148 33.6496 90.0836 32.8468 88.4498 31.1977C86.816 29.5486 85.977 27.5741 85.977 25.2306C85.977 22.8872 86.7939 20.891 88.4498 19.2636C90.1057 17.6362 92.1148 16.8117 94.4993 16.8117C96.8837 16.8117 98.915 17.6362 100.549 19.2636C102.183 20.891 103.022 22.8872 103.022 25.2306C103.022 27.5741 102.205 29.5703 100.549 31.1977Z" fill="white"/>
<path d="M19.0355 17.3324V14.5984H12.8094V8.65306L9.96124 9.4993V14.5984H5.41309V17.3324H9.96124V35.8629H12.8094V17.3324H19.0355Z" fill="white"/>
<path d="M38.8837 29.809C37.3603 32.109 34.755 33.6279 31.7745 33.6279C27.5354 33.6279 24.0249 30.5901 23.3626 26.5976H42.9682C43.0345 26.142 43.1007 25.6863 43.1007 25.2089C43.1007 19.0683 38.0227 14.0777 31.7745 14.0777C25.5263 14.0777 20.4482 19.0683 20.4482 25.2089C20.4482 31.3496 25.5263 36.3402 31.7745 36.3402C35.7927 36.3402 39.3032 34.2789 41.3123 31.176L38.9058 29.7873L38.8837 29.809ZM31.7745 16.8117C36.0356 16.8117 39.5461 19.8928 40.2084 23.907H23.3626C24.0029 19.8928 27.5133 16.8117 31.7965 16.8117H31.7745Z" fill="white"/>
<path d="M69.5288 14.0994C66.5703 14.0994 63.9871 15.5748 62.4637 17.8315C60.9403 15.5965 58.335 14.0994 55.3986 14.0994C50.6959 14.0994 46.8984 17.8315 46.8984 22.4532V35.8629H49.7465V22.3665C49.7465 19.307 52.2635 16.8334 55.3765 16.8334C58.4896 16.8334 61.0065 19.307 61.0065 22.3665V35.8629H63.8767V22.3665C63.8767 19.307 66.3937 16.8334 69.5067 16.8334C72.6198 16.8334 75.1367 19.307 75.1367 22.3665V35.8629H78.0069V22.4532C78.0069 17.8315 74.2094 14.0994 69.5067 14.0994H69.5288Z" fill="white"/>
</g>
<defs>
<clipPath id="clip0_86_687">
<rect width="119.091" height="35.6939" fill="white" transform="translate(5.41309 8.65306)"/>
</clipPath>
</defs>
</svg>
